<?xml version="1.0" encoding="utf-8"?>
<!-- Generator: Adobe Illustrator 25.0.1, SVG Export Plug-In . SVG Version: 6.00 Build 0)  -->
<svg version="1.1" id="Layer_1" xmlns="http://www.w3.org/2000/svg" xmlns:xlink="http://www.w3.org/1999/xlink" x="0px" y="0px"
	 viewBox="0 0 367.5 603.5" style="enable-background:new 0 0 367.5 603.5;" xml:space="preserve">
<style type="text/css">
	.st0{fill:#0E0C16;}
	.st1{fill:url(#XMLID_6_);}
	.st2{fill:#100F12;}
	.st3{fill:url(#XMLID_7_);}
	.st4{fill:url(#XMLID_8_);}
	.st5{opacity:0.95;}
	.st6{fill:url(#XMLID_9_);}
	.st7{fill:url(#XMLID_10_);}
	.st8{fill:url(#XMLID_11_);}
	.st9{opacity:0.9;fill:url(#XMLID_12_);}
	.st10{opacity:0.9;fill:url(#XMLID_13_);}
	.st11{fill:#1C1C1C;}
	.st12{fill:url(#SVGID_1_);}
	.st13{fill:url(#SVGID_2_);}
</style>
<g id="XMLID_67_">
	<path id="XMLID_68_" class="st0" d="M263.3,21.3H89.1c0,0-38-3.3-38,36c0,34.9,0,439.1,0,473.9c0,41.6,38,36,38,36h174.2
		c0,0,38,3.6,38-36c0-34.9,0-439.1,0-473.9C301.3,16.1,263.3,21.3,263.3,21.3z"/>
</g>
<radialGradient id="XMLID_6_" cx="223.716" cy="39.8624" r="6.374" gradientUnits="userSpaceOnUse">
	<stop  offset="0.1" style="stop-color:#100F12"/>
	<stop  offset="0.443" style="stop-color:#232324"/>
	<stop  offset="1" style="stop-color:#100F12"/>
</radialGradient>
<path id="XMLID_66_" class="st1" d="M230.1,39.9c0-3.5-2.9-6.4-6.4-6.4c-3.5,0-6.4,2.9-6.4,6.4c0,3.5,2.9,6.4,6.4,6.4
	C227.2,46.2,230.1,43.4,230.1,39.9z"/>
<path id="XMLID_65_" class="st2" d="M227.5,39.9c0-2.1-1.7-3.8-3.8-3.8c-2.1,0-3.8,1.7-3.8,3.8c0,2.1,1.7,3.8,3.8,3.8
	C225.8,43.7,227.5,42,227.5,39.9z"/>
<radialGradient id="XMLID_7_" cx="-1680.2455" cy="-1311.993" r="1.517" gradientTransform="matrix(0.2443 0.9697 -0.9697 0.2443 -637.7511 1988.1167)" gradientUnits="userSpaceOnUse">
	<stop  offset="0" style="stop-color:#414042"/>
	<stop  offset="0.5803" style="stop-color:#222123"/>
	<stop  offset="1" style="stop-color:#100F12"/>
</radialGradient>
<circle id="XMLID_60_" class="st3" cx="224.1" cy="38.3" r="1.5"/>
<radialGradient id="XMLID_8_" cx="-1677.2714" cy="-1310.2432" r="1.0397" gradientTransform="matrix(0.2443 0.9697 -0.9697 0.2443 -637.7511 1988.1167)" gradientUnits="userSpaceOnUse">
	<stop  offset="0" style="stop-color:#414042"/>
	<stop  offset="0.5803" style="stop-color:#222123"/>
	<stop  offset="1" style="stop-color:#100F12"/>
</radialGradient>
<path id="XMLID_56_" class="st4" d="M223.3,42.6c0.6-0.1,0.9-0.7,0.8-1.3c-0.1-0.6-0.7-0.9-1.3-0.8c-0.6,0.1-0.9,0.7-0.8,1.3
	C222.2,42.4,222.8,42.7,223.3,42.6z"/>
<g id="XMLID_54_" class="st5">
	<linearGradient id="XMLID_9_" gradientUnits="userSpaceOnUse" x1="54.056" y1="297.5018" x2="62.4732" y2="297.5018">
		<stop  offset="0" style="stop-color:#F1F2F2;stop-opacity:0.9"/>
		<stop  offset="0.2" style="stop-color:#F1F2F2;stop-opacity:0.6512"/>
		<stop  offset="0.3591" style="stop-color:#B6B6B7;stop-opacity:0.4629"/>
		<stop  offset="0.5442" style="stop-color:#777778;stop-opacity:0.2436"/>
		<stop  offset="0.6797" style="stop-color:#504F51;stop-opacity:8.318985e-02"/>
		<stop  offset="0.75" style="stop-color:#414042;stop-opacity:0"/>
		<stop  offset="1" style="stop-color:#414042;stop-opacity:0"/>
	</linearGradient>
	<path id="XMLID_55_" class="st6" d="M54.1,297.5c0,0,0-224.5,0-232.8s2.8-22,8.2-24.6c1.2-0.5-3.7,9.3-3.7,21.7s0,235.7,0,235.7
		s0,223.3,0,235.7s4.8,22.2,3.7,21.7c-5.5-2.6-8.2-16.3-8.2-24.6C54.1,522,54.1,297.5,54.1,297.5z"/>
</g>
<g id="XMLID_4_" class="st5">
	<linearGradient id="XMLID_10_" gradientUnits="userSpaceOnUse" x1="290.0698" y1="294.1778" x2="298.487" y2="294.1778">
		<stop  offset="0" style="stop-color:#414042;stop-opacity:0"/>
		<stop  offset="0.25" style="stop-color:#414042;stop-opacity:0"/>
		<stop  offset="0.3203" style="stop-color:#504F51;stop-opacity:8.318990e-02"/>
		<stop  offset="0.4558" style="stop-color:#777778;stop-opacity:0.2436"/>
		<stop  offset="0.6409" style="stop-color:#B6B6B7;stop-opacity:0.4629"/>
		<stop  offset="0.8" style="stop-color:#F1F2F2;stop-opacity:0.6512"/>
		<stop  offset="1" style="stop-color:#F1F2F2;stop-opacity:0.9"/>
	</linearGradient>
	<path id="XMLID_53_" class="st7" d="M298.5,294.2c0,0,0,224.5,0,232.8s-2.8,22-8.2,24.6c-1.2,0.5,3.7-9.3,3.7-21.7s0-235.7,0-235.7
		s0-223.3,0-235.7s-4.8-22.2-3.7-21.7c5.5,2.6,8.2,16.3,8.2,24.6S298.5,294.2,298.5,294.2z"/>
</g>
<linearGradient id="XMLID_11_" gradientUnits="userSpaceOnUse" x1="178.4411" y1="41.2247" x2="178.4411" y2="33.9332">
	<stop  offset="0" style="stop-color:#0E0C16"/>
	<stop  offset="0.2205" style="stop-color:#110F19"/>
	<stop  offset="0.3881" style="stop-color:#1A1921"/>
	<stop  offset="0.5377" style="stop-color:#2A292E"/>
	<stop  offset="0.6769" style="stop-color:#414042"/>
	<stop  offset="0.6785" style="stop-color:#414042"/>
	<stop  offset="0.7375" style="stop-color:#2F2E33"/>
	<stop  offset="0.8213" style="stop-color:#1D1B23"/>
	<stop  offset="0.9077" style="stop-color:#121019"/>
	<stop  offset="1" style="stop-color:#0E0C16"/>
</linearGradient>
<path id="XMLID_3_" class="st8" d="M196,38.2c0,1.7-1.2,3.1-2.7,3.1h-29.6c-1.5,0-2.7-1.4-2.7-3.1V37c0-1.7,1.2-3.1,2.7-3.1h29.6
	c1.5,0,2.7,1.4,2.7,3.1V38.2z"/>
<linearGradient id="XMLID_12_" gradientUnits="userSpaceOnUse" x1="175.5743" y1="561.7838" x2="175.5743" y2="549.6458">
	<stop  offset="0" style="stop-color:#0E0C16"/>
	<stop  offset="0.2653" style="stop-color:#3C3D3F"/>
	<stop  offset="0.4" style="stop-color:#262627"/>
	<stop  offset="0.5" style="stop-color:#0E0C16"/>
</linearGradient>
<path id="XMLID_2_" class="st9" d="M84.2,556c-7.7,0-16.7-10.7-14.7-4.4c1.6,5,9.5,8.5,12.8,9.7c0.8,0.3,2.3,0.4,3.1,0.4h180.4
	c0.8,0,2.3-0.1,3.1-0.4c3.3-1.2,11.2-4.7,12.8-9.7c2-6.3-7,4.4-14.7,4.4H84.2z"/>
<linearGradient id="XMLID_13_" gradientUnits="userSpaceOnUse" x1="176.1754" y1="2742.0198" x2="176.1754" y2="2737.5764" gradientTransform="matrix(1 0 0 -1 0 2766.0317)">
	<stop  offset="0" style="stop-color:#0E0C16"/>
	<stop  offset="0.2653" style="stop-color:#3C3D3F"/>
	<stop  offset="0.4" style="stop-color:#262627"/>
	<stop  offset="0.5" style="stop-color:#0E0C16"/>
</linearGradient>
<path id="XMLID_1_" class="st10" d="M87.8,26.1c-7.5,0-16.2,3.9-14.2,1.6c1.6-1.8,9.2-3.1,12.4-3.6c0.8-0.1,2.2-0.2,3-0.2h174.6
	c0.8,0,2.2,0.1,3,0.2c3.2,0.4,10.8,1.7,12.4,3.6c1.9,2.3-6.8-1.6-14.2-1.6H87.8z"/>
<path class="st11" d="M288.5,539.9H63.8c-4.1,0-7.5-3.4-7.5-7.5V56.1c0-4.1,3.4-7.5,7.5-7.5h224.7c4.1,0,7.5,3.4,7.5,7.5v476.3
	C296,536.6,292.7,539.9,288.5,539.9z"/>
<radialGradient id="SVGID_1_" cx="104.7546" cy="34.0035" r="7.8979" gradientUnits="userSpaceOnUse">
	<stop  offset="0" style="stop-color:#414042;stop-opacity:0"/>
	<stop  offset="4.694398e-02" style="stop-color:#414042;stop-opacity:0"/>
	<stop  offset="0.3321" style="stop-color:#414042;stop-opacity:0"/>
	<stop  offset="1" style="stop-color:#6D6E71;stop-opacity:0.9"/>
</radialGradient>
<circle class="st12" cx="107.6" cy="37.6" r="2.2"/>
<radialGradient id="SVGID_2_" cx="95.7081" cy="34.0035" r="7.8979" gradientUnits="userSpaceOnUse">
	<stop  offset="0" style="stop-color:#414042;stop-opacity:0"/>
	<stop  offset="4.694398e-02" style="stop-color:#414042;stop-opacity:0"/>
	<stop  offset="0.3321" style="stop-color:#414042;stop-opacity:0"/>
	<stop  offset="1" style="stop-color:#6D6E71;stop-opacity:0.9"/>
</radialGradient>
<circle class="st13" cx="98.5" cy="37.6" r="2.2"/>
</svg>
